<svg width="29" height="33" viewBox="0 0 29 33" fill="none" xmlns="http://www.w3.org/2000/svg">
<path d="M1 7.5L5.5 1.5H23.5L28 7.5M1 7.5V28.5C1 29.2957 1.31607 30.0587 1.87868 30.6213C2.44129 31.1839 3.20435 31.5 4 31.5H25C25.7957 31.5 26.5587 31.1839 27.1213 30.6213C27.6839 30.0587 28 29.2957 28 28.5V7.5M1 7.5H28M20.5 13.5C20.5 15.0913 19.8679 16.6174 18.7426 17.7426C17.6174 18.8679 16.0913 19.5 14.5 19.5C12.9087 19.5 11.3826 18.8679 10.2574 17.7426C9.13214 16.6174 8.5 15.0913 8.5 13.5" stroke="#B3B3B3" stroke-width="1.55102" stroke-linecap="round" stroke-linejoin="round"/>
</svg>
